<svg class="rail" viewBox="0 0 1040 150" role="img" aria-label="The seven full-name totals that pass, and the first-name total each one requires">
<line class="axis" x1="26" y1="96" x2="1014" y2="96"/>
<rect class="tick" x="26.0" y="74" width="24.5" height="22" rx="1.5"/>
<rect class="tick" x="52.7" y="74" width="24.5" height="22" rx="1.5"/>
<rect class="tick" x="79.4" y="74" width="24.5" height="22" rx="1.5"/>
<rect class="tick on" x="106.1" y="56" width="24.5" height="40" rx="1.5"/>
<text class="tnum" x="118.5" y="80">19</text>
<text class="tneed" x="118.5" y="40">4</text>
<rect class="tick" x="132.8" y="74" width="24.5" height="22" rx="1.5"/>
<text class="tdim" x="145.2" y="112">20</text>
<rect class="tick on" x="159.5" y="56" width="24.5" height="40" rx="1.5"/>
<text class="tnum" x="171.9" y="80">21</text>
<text class="tneed" x="171.9" y="40">6</text>
<rect class="tick" x="186.2" y="74" width="24.5" height="22" rx="1.5"/>
<rect class="tick" x="212.9" y="74" width="24.5" height="22" rx="1.5"/>
<rect class="tick" x="239.6" y="74" width="24.5" height="22" rx="1.5"/>
<rect class="tick" x="266.3" y="74" width="24.5" height="22" rx="1.5"/>
<text class="tdim" x="278.7" y="112">25</text>
<rect class="tick" x="293.0" y="74" width="24.5" height="22" rx="1.5"/>
<rect class="tick on" x="319.7" y="56" width="24.5" height="40" rx="1.5"/>
<text class="tnum" x="332.1" y="80">27</text>
<text class="tneed" x="332.1" y="40">12</text>
<rect class="tick" x="346.4" y="74" width="24.5" height="22" rx="1.5"/>
<rect class="tick" x="373.1" y="74" width="24.5" height="22" rx="1.5"/>
<rect class="tick" x="399.8" y="74" width="24.5" height="22" rx="1.5"/>
<text class="tdim" x="412.2" y="112">30</text>
<rect class="tick" x="426.5" y="74" width="24.5" height="22" rx="1.5"/>
<rect class="tick" x="453.2" y="74" width="24.5" height="22" rx="1.5"/>
<rect class="tick" x="479.9" y="74" width="24.5" height="22" rx="1.5"/>
<rect class="tick" x="506.6" y="74" width="24.5" height="22" rx="1.5"/>
<rect class="tick" x="533.4" y="74" width="24.5" height="22" rx="1.5"/>
<text class="tdim" x="545.7" y="112">35</text>
<rect class="tick on" x="560.1" y="56" width="24.5" height="40" rx="1.5"/>
<text class="tnum" x="572.4" y="80">36</text>
<text class="tneed" x="572.4" y="40">21</text>
<rect class="tick on" x="586.8" y="56" width="24.5" height="40" rx="1.5"/>
<text class="tnum" x="599.1" y="80">37</text>
<text class="tneed" x="599.1" y="40">22</text>
<rect class="tick" x="613.5" y="74" width="24.5" height="22" rx="1.5"/>
<rect class="tick" x="640.2" y="74" width="24.5" height="22" rx="1.5"/>
<rect class="tick" x="666.9" y="74" width="24.5" height="22" rx="1.5"/>
<text class="tdim" x="679.2" y="112">40</text>
<rect class="tick" x="693.6" y="74" width="24.5" height="22" rx="1.5"/>
<rect class="tick" x="720.3" y="74" width="24.5" height="22" rx="1.5"/>
<rect class="tick" x="747.0" y="74" width="24.5" height="22" rx="1.5"/>
<rect class="tick" x="773.7" y="74" width="24.5" height="22" rx="1.5"/>
<rect class="tick on" x="800.4" y="56" width="24.5" height="40" rx="1.5"/>
<text class="tnum" x="812.7" y="80">45</text>
<text class="tneed" x="812.7" y="40">30</text>
<rect class="tick on" x="827.1" y="56" width="24.5" height="40" rx="1.5"/>
<text class="tnum" x="839.4" y="80">46</text>
<text class="tneed" x="839.4" y="40">31</text>
<rect class="tick" x="853.8" y="74" width="24.5" height="22" rx="1.5"/>
<rect class="tick" x="880.5" y="74" width="24.5" height="22" rx="1.5"/>
<rect class="tick" x="907.2" y="74" width="24.5" height="22" rx="1.5"/>
<rect class="tick" x="933.9" y="74" width="24.5" height="22" rx="1.5"/>
<text class="tdim" x="946.2" y="112">50</text>
<rect class="tick" x="960.6" y="74" width="24.5" height="22" rx="1.5"/>
<rect class="tick" x="987.3" y="74" width="24.5" height="22" rx="1.5"/>
<text class="axlbl" x="26" y="136">16 = the shortest possible name</text>
<text class="axlbl end" x="1014" y="136">52 = Cheiro's series ends</text>
<text class="axlbl" x="26" y="22">first name must total &#8595;</text>
</svg>